<?xml version="1.0" encoding="iso-8859-1"?>
<!-- Generator: Adobe Illustrator 17.1.0, SVG Export Plug-In . SVG Version: 6.00 Build 0)  -->
<!DOCTYPE svg PUBLIC "-//W3C//DTD SVG 1.1//EN" "http://www.w3.org/Graphics/SVG/1.1/DTD/svg11.dtd">
<svg version="1.1" id="Capa_1" xmlns="http://www.w3.org/2000/svg" xmlns:xlink="http://www.w3.org/1999/xlink" x="0px" y="0px"
	 viewBox="0 0 200.521 200.521" style="enable-background:new 0 0 200.521 200.521;" xml:space="preserve">
<path d="M171.609,122.141c-5.523,0-10,4.478-10,10c0,23.992-22.262,43.95-51.349,47.728V99.897h21.116
	c3.294,5.093,9.012,8.479,15.516,8.479c10.189,0,18.479-8.289,18.479-18.479s-8.29-18.479-18.479-18.479
	c-6.504,0-12.222,3.385-15.516,8.479h-21.116V60.818c0-0.125-0.014-0.247-0.019-0.371c12.239-4.167,21.07-15.766,21.07-29.396
	C131.313,13.93,117.383,0,100.261,0C83.139,0,69.209,13.93,69.209,31.051c0,13.63,8.832,25.229,21.07,29.396
	c-0.005,0.124-0.019,0.246-0.019,0.371v19.079H69.145c-3.294-5.093-9.012-8.479-15.515-8.479c-10.189,0-18.479,8.289-18.479,18.479
	s8.29,18.479,18.479,18.479c6.504,0,12.221-3.385,15.515-8.479h21.116v79.971c-29.086-3.778-51.349-23.736-51.349-47.728
	c0-5.522-4.477-10-10-10s-10,4.478-10,10c0,37.705,36.493,68.381,81.349,68.381s81.349-30.676,81.349-68.381
	C181.609,126.618,177.132,122.141,171.609,122.141z M100.261,20c6.094,0,11.052,4.957,11.052,11.051s-4.958,11.052-11.052,11.052
	s-11.051-4.958-11.051-11.052S94.167,20,100.261,20z"/>
<g>
</g>
<g>
</g>
<g>
</g>
<g>
</g>
<g>
</g>
<g>
</g>
<g>
</g>
<g>
</g>
<g>
</g>
<g>
</g>
<g>
</g>
<g>
</g>
<g>
</g>
<g>
</g>
<g>
</g>
</svg>
